<svg version="1.1" id="Layer_1" xmlns="http://www.w3.org/2000/svg" xmlns:xlink="http://www.w3.org/1999/xlink" x="0px" y="0px"
	 width="100%" viewBox="0 0 512 512" enable-background="new 0 0 512 512" xml:space="preserve">
<path fill="#000000" opacity="1.000000" stroke="none" 
	d="
M220.000000,513.000000 
	C147.033264,513.000000 74.066521,513.000000 1.049890,513.000000 
	C1.049890,342.444366 1.049890,171.888718 1.049890,1.000000 
	C76.021103,1.000000 151.042709,1.000000 226.467651,1.359544 
	C224.471008,2.691425 222.105484,3.761560 219.665741,4.621008 
	C194.509201,13.482844 178.025360,30.906883 172.314987,56.720856 
	C166.745270,81.898827 163.145218,107.525208 159.072800,133.017410 
	C156.187378,151.079346 149.382278,167.197556 134.665833,178.344147 
	C119.963081,189.480408 106.450294,201.376816 97.034164,217.434601 
	C94.757889,221.316467 91.552834,221.784271 87.644493,219.865982 
	C84.368736,218.258163 81.017548,216.786163 77.630859,215.425522 
	C66.638542,211.009155 55.469952,216.534393 53.073559,228.132156 
	C50.061806,242.708023 47.597599,257.400909 45.113598,272.079926 
	C44.189762,277.539307 46.855808,280.883209 52.983482,283.431824 
	C52.633350,288.904388 52.271343,293.942352 51.553318,299.037292 
	C44.591225,301.464813 42.695942,303.531281 43.101429,310.409912 
	C43.704922,320.647491 44.645229,330.889496 46.010208,341.053314 
	C50.070290,371.285217 61.802837,398.703583 78.621490,423.801758 
	C90.852020,442.053101 105.996689,457.884583 123.647034,471.223450 
	C150.247162,491.325928 179.692123,504.753082 212.690247,510.209656 
	C215.211685,510.626587 217.567307,512.046326 220.000000,513.000000 
z"/>
<path fill="#000000" opacity="1.000000" stroke="none" 
	d="
M317.000000,1.000005 
	C382.303131,1.000000 447.606293,1.000000 512.954712,1.000000 
	C512.954712,171.557632 512.954712,342.115265 512.954712,513.000000 
	C434.645538,513.000000 356.290619,513.000000 277.544495,512.623047 
	C277.826416,511.845581 278.462280,511.184418 279.177948,511.082184 
	C305.172150,507.369080 329.368103,498.640625 352.080170,485.500916 
	C372.273529,473.818359 389.899506,458.995667 404.928772,441.335175 
	C419.757843,423.909882 431.348236,404.388336 439.666656,382.908112 
	C448.643799,359.726837 453.358368,335.748810 453.848877,311.018036 
	C454.068451,299.947205 453.280121,288.765961 451.866425,277.774109 
	C449.692169,260.869141 447.060608,243.988617 443.702942,227.282654 
	C441.530823,216.475372 430.229370,211.264542 419.877563,215.212982 
	C416.152161,216.633926 412.643066,218.644699 408.880890,219.936996 
	C406.999847,220.583145 404.496368,220.900787 402.747070,220.195190 
	C394.275543,216.778091 385.928436,213.042618 377.607666,209.264801 
	C370.848358,206.195923 364.226227,204.513214 357.077362,208.348221 
	C352.851807,210.615005 348.211761,212.094757 343.836945,214.100327 
	C326.930054,221.851074 327.071808,221.577728 310.144867,214.223053 
	C301.612854,210.515930 293.525665,204.836212 283.491608,206.143768 
	C282.024750,195.123657 289.299957,184.066040 300.322968,180.030396 
	C307.967987,177.231491 315.627502,174.457184 323.175262,171.411041 
	C335.638672,166.381042 348.339539,163.448792 361.973267,163.862717 
	C379.956543,164.408707 397.986359,164.451981 415.960022,163.765854 
	C422.866119,163.502197 430.110657,161.604630 436.427887,158.744156 
	C447.361877,153.793182 451.834167,143.667953 453.649445,132.360474 
	C454.138031,129.317093 455.214630,127.487541 458.008606,125.824142 
	C465.747955,121.216522 470.354523,114.052490 470.840485,105.093124 
	C471.243103,97.669525 470.828857,90.118668 469.945251,82.723518 
	C467.072510,58.681080 449.162811,38.153316 425.675385,33.165524 
	C413.919464,30.669041 401.718994,30.199314 389.697510,29.041779 
	C380.294464,28.136364 370.764862,28.153708 361.472717,26.644958 
	C356.462585,25.831469 351.524780,23.178013 347.095245,20.469946 
	C337.512695,14.611485 329.578369,6.084988 318.360504,2.834875 
	C317.778625,2.666289 317.447723,1.631514 317.000000,1.000005 
z"/>
<path fill="#272727" opacity="1.000000" stroke="none" 
	d="
M316.531342,1.000005 
	C317.447723,1.631514 317.778625,2.666289 318.360504,2.834875 
	C329.578369,6.084988 337.512695,14.611485 347.095245,20.469946 
	C351.524780,23.178013 356.462585,25.831469 361.472717,26.644958 
	C370.764862,28.153708 380.294464,28.136364 389.697510,29.041779 
	C401.718994,30.199314 413.919464,30.669041 425.675385,33.165524 
	C449.162811,38.153316 467.072510,58.681080 469.945251,82.723518 
	C470.828857,90.118668 471.243103,97.669525 470.840485,105.093124 
	C470.354523,114.052490 465.747955,121.216522 458.008606,125.824142 
	C455.214630,127.487541 454.138031,129.317093 453.649445,132.360474 
	C451.834167,143.667953 447.361877,153.793182 436.427887,158.744156 
	C430.110657,161.604630 422.866119,163.502197 415.960022,163.765854 
	C397.986359,164.451981 379.956543,164.408707 361.973267,163.862717 
	C348.339539,163.448792 335.638672,166.381042 323.175262,171.411041 
	C315.627502,174.457184 307.967987,177.231491 300.322968,180.030396 
	C289.299957,184.066040 282.024750,195.123657 283.491608,206.143768 
	C293.525665,204.836212 301.612854,210.515930 310.144867,214.223053 
	C327.071808,221.577728 326.930054,221.851074 343.836945,214.100327 
	C348.211761,212.094757 352.851807,210.615005 357.077362,208.348221 
	C364.226227,204.513214 370.848358,206.195923 377.607666,209.264801 
	C385.928436,213.042618 394.275543,216.778091 402.747070,220.195190 
	C404.496368,220.900787 406.999847,220.583145 408.880890,219.936996 
	C412.643066,218.644699 416.152161,216.633926 419.877563,215.212982 
	C430.229370,211.264542 441.530823,216.475372 443.702942,227.282654 
	C447.060608,243.988617 449.692169,260.869141 451.866425,277.774109 
	C453.280121,288.765961 454.068451,299.947205 453.848877,311.018036 
	C453.358368,335.748810 448.643799,359.726837 439.666656,382.908112 
	C431.348236,404.388336 419.757843,423.909882 404.928772,441.335175 
	C389.899506,458.995667 372.273529,473.818359 352.080170,485.500916 
	C329.368103,498.640625 305.172150,507.369080 279.177948,511.082184 
	C278.462280,511.184418 277.826416,511.845581 277.076660,512.623047 
	C258.312439,513.000000 239.624878,513.000000 220.468658,513.000000 
	C217.567307,512.046326 215.211685,510.626587 212.690247,510.209656 
	C179.692123,504.753082 150.247162,491.325928 123.647034,471.223450 
	C105.996689,457.884583 90.852020,442.053101 78.621490,423.801758 
	C61.802837,398.703583 50.070290,371.285217 46.010208,341.053314 
	C44.645229,330.889496 43.704922,320.647491 43.101429,310.409912 
	C42.695942,303.531281 44.591225,301.464813 51.813393,299.288483 
	C58.980133,301.410065 60.205086,303.660797 60.959129,310.526306 
	C62.589973,325.375031 63.216343,340.557892 66.910782,354.920593 
	C95.144547,464.683594 212.420898,525.015503 317.523102,482.418365 
	C386.873474,454.311188 425.977997,401.031372 435.096222,326.515350 
	C438.030487,302.535767 435.355896,278.625946 431.477753,254.894974 
	C430.212341,247.151825 428.462311,239.487885 426.856964,231.400009 
	C422.025787,233.469360 418.011536,235.057571 414.111725,236.889389 
	C407.958923,239.779510 402.024963,239.576294 395.860016,236.698547 
	C387.427826,232.762466 378.741425,229.369904 370.319458,225.413513 
	C367.116943,223.909088 364.510284,224.094482 361.410156,225.522751 
	C352.956573,229.417404 344.315399,232.904327 335.856903,236.788757 
	C329.692444,239.619659 323.809082,239.681274 317.612579,236.789062 
	C309.331329,232.923813 300.759308,229.675034 292.525208,225.718170 
	C288.826508,223.940796 285.851166,224.118790 282.249268,225.822388 
	C273.987305,229.730072 265.486084,233.128250 257.159851,236.904907 
	C251.165359,239.623932 245.401337,239.669235 239.372299,236.876236 
	C230.777008,232.894394 222.105438,229.042694 213.281158,225.611984 
	C210.835785,224.661285 207.411652,224.568756 204.991592,225.509781 
	C196.168884,228.940445 187.531525,232.867142 178.921249,236.818130 
	C172.756561,239.646896 166.859573,239.661835 160.671860,236.777145 
	C152.237610,232.845139 143.558411,229.438370 135.126099,225.502518 
	C131.979507,224.033813 129.379105,223.968140 126.223129,225.436203 
	C117.784286,229.361633 109.127975,232.818878 100.681656,236.729111 
	C94.342278,239.663925 88.249405,239.783127 81.974602,236.658829 
	C78.282143,234.820297 74.419701,233.323166 69.696236,231.263748 
	C67.419197,244.953323 65.057068,258.019562 63.129589,271.149567 
	C61.886265,279.619110 61.018940,281.015778 52.971615,282.997223 
	C46.855808,280.883209 44.189762,277.539307 45.113598,272.079926 
	C47.597599,257.400909 50.061806,242.708023 53.073559,228.132156 
	C55.469952,216.534393 66.638542,211.009155 77.630859,215.425522 
	C81.017548,216.786163 84.368736,218.258163 87.644493,219.865982 
	C91.552834,221.784271 94.757889,221.316467 97.034164,217.434601 
	C106.450294,201.376816 119.963081,189.480408 134.665833,178.344147 
	C149.382278,167.197556 156.187378,151.079346 159.072800,133.017410 
	C163.145218,107.525208 166.745270,81.898827 172.314987,56.720856 
	C178.025360,30.906883 194.509201,13.482844 219.665741,4.621008 
	C222.105484,3.761560 224.471008,2.691425 226.935486,1.359544 
	C256.687561,1.000000 286.375122,1.000000 316.531342,1.000005 
M154.277298,215.204483 
	C157.625137,216.690445 161.094940,217.955490 164.289505,219.719101 
	C168.152023,221.851486 171.595459,221.676712 175.572510,219.779037 
	C183.833618,215.837204 192.326416,212.381958 200.712524,208.700592 
	C206.352844,206.224564 211.926895,206.104141 217.614807,208.679123 
	C225.047073,212.043808 232.711105,214.928711 239.992981,218.582886 
	C245.406113,221.299271 250.090530,221.850571 255.853943,219.057968 
	C265.518311,214.375229 265.708832,214.795654 265.820740,203.847565 
	C266.006409,185.688126 274.538818,172.778290 290.797760,165.088364 
	C296.950745,162.178207 303.602478,160.339935 309.846375,157.601440 
	C329.374878,149.036484 349.580231,144.846832 371.043091,145.857910 
	C387.004517,146.609802 403.030792,146.096985 419.026672,145.965378 
	C429.001862,145.883316 436.740845,137.907730 435.278076,129.256989 
	C433.870728,129.174591 432.400421,129.014023 430.930023,129.013428 
	C400.269226,129.000900 369.607880,128.914703 338.948059,129.087952 
	C332.995148,129.121597 326.912842,129.577560 321.123047,130.876526 
	C301.758362,135.221100 282.342865,139.897507 262.417114,136.806213 
	C250.855606,135.012527 239.511368,131.486847 228.278778,128.055115 
	C223.237152,126.514816 221.719910,121.523338 223.605118,117.030266 
	C225.407974,112.733498 229.937943,110.971443 234.927658,112.633896 
	C235.401138,112.791641 235.860031,112.994331 236.322510,113.183884 
	C256.399292,121.412682 277.322174,122.747536 298.102722,117.999893 
	C318.596252,113.317833 339.079315,111.585526 359.984344,111.894623 
	C386.473480,112.286301 412.972839,111.989380 439.467773,111.989075 
	C440.800842,111.989059 442.135406,112.026039 443.466736,111.977013 
	C449.774567,111.744705 452.977936,108.582047 453.078369,102.380226 
	C453.145813,98.215668 453.130768,94.047897 453.057068,89.883255 
	C452.687134,68.983238 436.560455,51.088329 415.824036,48.948235 
	C403.422028,47.668289 390.960907,46.970436 378.536316,45.895924 
	C370.756439,45.223106 362.929932,44.729614 355.240387,43.455276 
	C343.238312,41.466251 334.293213,33.598202 325.112823,26.449158 
	C317.705261,20.680641 309.563049,17.858309 300.145508,17.955030 
	C281.484344,18.146688 262.819122,17.911810 244.156967,18.044907 
	C216.968994,18.238810 194.333633,36.032581 189.003448,62.695591 
	C183.985962,87.794228 180.257034,113.151321 176.011505,138.403168 
	C172.209869,161.014862 161.972229,179.823593 143.609253,193.949509 
	C138.712540,197.716370 134.018250,201.746323 129.741226,205.238846 
	C138.000671,208.589417 145.789597,211.749100 154.277298,215.204483 
z"/>
<path fill="#FEC994" opacity="1.000000" stroke="none" 
	d="
M52.983482,283.431824 
	C61.018940,281.015778 61.886265,279.619110 63.129589,271.149567 
	C65.057068,258.019562 67.419197,244.953323 69.696236,231.263748 
	C74.419701,233.323166 78.282143,234.820297 81.974602,236.658829 
	C88.249405,239.783127 94.342278,239.663925 100.681656,236.729111 
	C109.127975,232.818878 117.784286,229.361633 126.223129,225.436203 
	C129.379105,223.968140 131.979507,224.033813 135.126099,225.502518 
	C143.558411,229.438370 152.237610,232.845139 160.671860,236.777145 
	C166.859573,239.661835 172.756561,239.646896 178.921249,236.818130 
	C187.531525,232.867142 196.168884,228.940445 204.991592,225.509781 
	C207.411652,224.568756 210.835785,224.661285 213.281158,225.611984 
	C222.105438,229.042694 230.777008,232.894394 239.372299,236.876236 
	C245.401337,239.669235 251.165359,239.623932 257.159851,236.904907 
	C265.486084,233.128250 273.987305,229.730072 282.249268,225.822388 
	C285.851166,224.118790 288.826508,223.940796 292.525208,225.718170 
	C300.759308,229.675034 309.331329,232.923813 317.612579,236.789062 
	C323.809082,239.681274 329.692444,239.619659 335.856903,236.788757 
	C344.315399,232.904327 352.956573,229.417404 361.410156,225.522751 
	C364.510284,224.094482 367.116943,223.909088 370.319458,225.413513 
	C378.741425,229.369904 387.427826,232.762466 395.860016,236.698547 
	C402.024963,239.576294 407.958923,239.779510 414.111725,236.889389 
	C418.011536,235.057571 422.025787,233.469360 426.856964,231.400009 
	C428.462311,239.487885 430.212341,247.151825 431.477753,254.894974 
	C435.355896,278.625946 438.030487,302.535767 435.096222,326.515350 
	C425.977997,401.031372 386.873474,454.311188 317.523102,482.418365 
	C212.420898,525.015503 95.144547,464.683594 66.910782,354.920593 
	C63.216343,340.557892 62.589973,325.375031 60.959129,310.526306 
	C60.205086,303.660797 58.980133,301.410065 52.169411,299.231506 
	C52.271343,293.942352 52.633350,288.904388 52.983482,283.431824 
M346.134277,353.142273 
	C344.863190,352.756073 343.605743,352.315430 342.318878,351.992065 
	C328.340820,348.479767 313.956940,353.805145 305.829559,365.482513 
	C297.607910,377.295319 297.690063,393.082123 306.034180,404.803223 
	C314.290161,416.400543 328.787048,421.600372 342.667938,417.943176 
	C356.442413,414.314026 366.673492,402.036316 367.869446,387.700439 
	C369.082153,373.163788 361.083252,360.138824 346.134277,353.142273 
M279.713440,339.042999 
	C280.198151,337.628967 280.737457,336.231049 281.159058,334.798431 
	C285.077240,321.483643 280.475891,307.017029 269.637939,298.509766 
	C258.403351,289.691162 243.560776,288.655396 231.253983,295.831207 
	C219.200226,302.859467 212.755569,316.274323 214.781555,330.119232 
	C216.911591,344.675171 228.026001,356.322357 242.201935,358.854034 
	C257.583160,361.600952 271.856049,354.240417 279.713440,339.042999 
M248.502533,470.231812 
	C271.620911,469.277069 287.266205,448.974762 281.431946,427.500488 
	C276.885681,410.766998 260.380219,399.694763 243.912903,402.331787 
	C226.117706,405.181427 213.288345,420.439026 214.325394,437.519440 
	C215.440994,455.893677 229.020294,469.240356 248.502533,470.231812 
M138.682999,408.809631 
	C139.933640,409.906982 141.126953,411.079010 142.443909,412.089966 
	C154.180084,421.099060 170.380539,421.462067 182.549911,413.021606 
	C194.873032,404.474548 200.192368,388.895264 195.658539,374.629211 
	C191.184479,360.551178 178.062561,350.830231 163.272430,350.966461 
	C149.142960,351.096588 138.533234,357.613464 132.485001,370.264618 
	C125.944977,383.944458 128.338562,396.810822 138.682999,408.809631 
M151.465057,274.006042 
	C145.316666,268.701599 138.199844,265.756378 130.068848,265.656799 
	C116.178085,265.486633 105.523186,271.439545 98.987282,283.662323 
	C92.447830,295.891754 93.262756,308.257172 101.346497,319.475098 
	C109.405983,330.659332 120.760376,335.460907 134.504227,333.203491 
	C148.025055,330.982666 157.233902,323.016144 161.372498,310.057098 
	C165.714340,296.461578 162.223618,284.468811 151.465057,274.006042 
M333.949219,302.273315 
	C335.903137,322.521881 353.761444,336.610413 373.256531,333.283112 
	C393.389282,329.846985 405.904999,310.804535 400.967926,291.120667 
	C396.770752,274.386749 380.815094,263.796875 363.030853,265.941589 
	C345.987244,267.997040 333.865601,282.740692 333.949219,302.273315 
z"/>
<path fill="#5B8950" opacity="1.000000" stroke="none" 
	d="
M153.927917,215.056641 
	C145.789597,211.749100 138.000671,208.589417 129.741226,205.238846 
	C134.018250,201.746323 138.712540,197.716370 143.609253,193.949509 
	C161.972229,179.823593 172.209869,161.014862 176.011505,138.403168 
	C180.257034,113.151321 183.985962,87.794228 189.003448,62.695591 
	C194.333633,36.032581 216.968994,18.238810 244.156967,18.044907 
	C262.819122,17.911810 281.484344,18.146688 300.145508,17.955030 
	C309.563049,17.858309 317.705261,20.680641 325.112823,26.449158 
	C334.293213,33.598202 343.238312,41.466251 355.240387,43.455276 
	C362.929932,44.729614 370.756439,45.223106 378.536316,45.895924 
	C390.960907,46.970436 403.422028,47.668289 415.824036,48.948235 
	C436.560455,51.088329 452.687134,68.983238 453.057068,89.883255 
	C453.130768,94.047897 453.145813,98.215668 453.078369,102.380226 
	C452.977936,108.582047 449.774567,111.744705 443.466736,111.977013 
	C442.135406,112.026039 440.800842,111.989059 439.467773,111.989075 
	C412.972839,111.989380 386.473480,112.286301 359.984344,111.894623 
	C339.079315,111.585526 318.596252,113.317833 298.102722,117.999893 
	C277.322174,122.747536 256.399292,121.412682 236.322510,113.183884 
	C235.860031,112.994331 235.401138,112.791641 234.927658,112.633896 
	C229.937943,110.971443 225.407974,112.733498 223.605118,117.030266 
	C221.719910,121.523338 223.237152,126.514816 228.278778,128.055115 
	C239.511368,131.486847 250.855606,135.012527 262.417114,136.806213 
	C282.342865,139.897507 301.758362,135.221100 321.123047,130.876526 
	C326.912842,129.577560 332.995148,129.121597 338.948059,129.087952 
	C369.607880,128.914703 400.269226,129.000900 430.930023,129.013428 
	C432.400421,129.014023 433.870728,129.174591 435.278076,129.256989 
	C436.740845,137.907730 429.001862,145.883316 419.026672,145.965378 
	C403.030792,146.096985 387.004517,146.609802 371.043091,145.857910 
	C349.580231,144.846832 329.374878,149.036484 309.846375,157.601440 
	C303.602478,160.339935 296.950745,162.178207 290.797760,165.088364 
	C274.538818,172.778290 266.006409,185.688126 265.820740,203.847565 
	C265.708832,214.795654 265.518311,214.375229 255.853943,219.057968 
	C250.090530,221.850571 245.406113,221.299271 239.992981,218.582886 
	C232.711105,214.928711 225.047073,212.043808 217.614807,208.679123 
	C211.926895,206.104141 206.352844,206.224564 200.712524,208.700592 
	C192.326416,212.381958 183.833618,215.837204 175.572510,219.779037 
	C171.595459,221.676712 168.152023,221.851486 164.289505,219.719101 
	C161.094940,217.955490 157.625137,216.690445 153.927917,215.056641 
M305.580597,71.891434 
	C313.085236,53.975330 301.697357,35.354698 283.059265,35.066143 
	C270.430725,34.870632 259.500610,44.154831 257.247467,56.990971 
	C255.205353,68.625130 262.613434,80.821556 274.195160,84.893089 
	C286.051300,89.061089 298.751831,84.011665 305.580597,71.891434 
M417.607452,73.857986 
	C421.461700,68.200134 417.163971,61.275143 411.813751,61.021435 
	C408.171417,60.848717 404.262177,60.199768 400.942322,61.249783 
	C398.253723,62.100136 395.324005,64.759811 394.205658,67.352226 
	C392.808594,70.590698 394.025970,74.209427 397.557373,76.357880 
	C402.528992,79.382553 412.603638,78.445633 417.607452,73.857986 
z"/>
<path fill="#292827" opacity="1.000000" stroke="none" 
	d="
M346.488586,353.302124 
	C361.083252,360.138824 369.082153,373.163788 367.869446,387.700439 
	C366.673492,402.036316 356.442413,414.314026 342.667938,417.943176 
	C328.787048,421.600372 314.290161,416.400543 306.034180,404.803223 
	C297.690063,393.082123 297.607910,377.295319 305.829559,365.482513 
	C313.956940,353.805145 328.340820,348.479767 342.318878,351.992065 
	C343.605743,352.315430 344.863190,352.756073 346.488586,353.302124 
M317.956085,391.129181 
	C322.472687,400.204773 330.541565,404.005371 339.154266,401.114014 
	C347.263855,398.391479 352.253998,389.970093 350.552856,381.877655 
	C348.564758,372.419952 339.667603,366.368530 330.521057,368.252960 
	C320.466522,370.324524 315.127350,379.523041 317.956085,391.129181 
z"/>
<path fill="#292828" opacity="1.000000" stroke="none" 
	d="
M279.523743,339.374023 
	C271.856049,354.240417 257.583160,361.600952 242.201935,358.854034 
	C228.026001,356.322357 216.911591,344.675171 214.781555,330.119232 
	C212.755569,316.274323 219.200226,302.859467 231.253983,295.831207 
	C243.560776,288.655396 258.403351,289.691162 269.637939,298.509766 
	C280.475891,307.017029 285.077240,321.483643 281.159058,334.798431 
	C280.737457,336.231049 280.198151,337.628967 279.523743,339.374023 
M237.962738,338.660583 
	C245.763275,343.646606 253.959793,343.323700 259.960205,337.794037 
	C265.593872,332.602356 267.136261,323.911835 263.444824,317.240814 
	C259.979797,310.978912 254.437271,307.842346 247.401993,308.278198 
	C240.371338,308.713806 235.104568,312.424957 232.628372,319.156311 
	C229.949844,326.437592 231.692474,332.865906 237.962738,338.660583 
z"/>
<path fill="#292827" opacity="1.000000" stroke="none" 
	d="
M248.037308,470.214233 
	C229.020294,469.240356 215.440994,455.893677 214.325394,437.519440 
	C213.288345,420.439026 226.117706,405.181427 243.912903,402.331787 
	C260.380219,399.694763 276.885681,410.766998 281.431946,427.500488 
	C287.266205,448.974762 271.620911,469.277069 248.037308,470.214233 
M245.252670,419.447235 
	C234.289139,422.687958 228.914505,432.114380 232.425491,441.944458 
	C235.710846,451.142822 246.330414,455.711853 255.304047,451.787903 
	C262.853210,448.486847 266.888153,440.203949 264.949646,431.987640 
	C263.014160,423.784119 255.682205,418.848572 245.252670,419.447235 
z"/>
<path fill="#292827" opacity="1.000000" stroke="none" 
	d="
M138.436905,408.553619 
	C128.338562,396.810822 125.944977,383.944458 132.485001,370.264618 
	C138.533234,357.613464 149.142960,351.096588 163.272430,350.966461 
	C178.062561,350.830231 191.184479,360.551178 195.658539,374.629211 
	C200.192368,388.895264 194.873032,404.474548 182.549911,413.021606 
	C170.380539,421.462067 154.180084,421.099060 142.443909,412.089966 
	C141.126953,411.079010 139.933640,409.906982 138.436905,408.553619 
M169.802200,400.683258 
	C181.676971,394.117340 183.727661,379.833069 173.939331,371.865814 
	C167.545471,366.661560 158.610382,366.652679 152.343338,371.844330 
	C145.953308,377.137878 144.230118,385.776215 148.117798,393.026794 
	C152.111679,400.475403 160.079803,403.491058 169.802200,400.683258 
z"/>
<path fill="#292827" opacity="1.000000" stroke="none" 
	d="
M151.728973,274.244202 
	C162.223618,284.468811 165.714340,296.461578 161.372498,310.057098 
	C157.233902,323.016144 148.025055,330.982666 134.504227,333.203491 
	C120.760376,335.460907 109.405983,330.659332 101.346497,319.475098 
	C93.262756,308.257172 92.447830,295.891754 98.987282,283.662323 
	C105.523186,271.439545 116.178085,265.486633 130.068848,265.656799 
	C138.199844,265.756378 145.316666,268.701599 151.728973,274.244202 
M116.527451,288.070221 
	C111.270538,294.983826 110.533875,301.983246 114.386765,308.410278 
	C117.870995,314.222321 124.965584,317.620361 131.373871,316.546417 
	C138.836807,315.295715 144.595169,309.736267 145.831360,302.588318 
	C147.009689,295.775055 143.729507,288.651031 137.772263,285.085236 
	C131.246078,281.178894 123.790298,282.063354 116.527451,288.070221 
z"/>
<path fill="#292827" opacity="1.000000" stroke="none" 
	d="
M333.931091,301.815643 
	C333.865601,282.740692 345.987244,267.997040 363.030853,265.941589 
	C380.815094,263.796875 396.770752,274.386749 400.967926,291.120667 
	C405.904999,310.804535 393.389282,329.846985 373.256531,333.283112 
	C353.761444,336.610413 335.903137,322.521881 333.931091,301.815643 
M384.211670,304.429077 
	C386.497223,294.461212 381.262848,285.270844 372.080658,283.129791 
	C362.746582,280.953308 353.618317,286.495697 351.346924,295.718750 
	C349.306274,304.004883 354.138733,312.908936 362.219421,315.751801 
	C371.104309,318.877594 379.710083,314.710358 384.211670,304.429077 
z"/>
<path fill="#272827" opacity="1.000000" stroke="none" 
	d="
M305.398682,72.225548 
	C298.751831,84.011665 286.051300,89.061089 274.195160,84.893089 
	C262.613434,80.821556 255.205353,68.625130 257.247467,56.990971 
	C259.500610,44.154831 270.430725,34.870632 283.059265,35.066143 
	C301.697357,35.354698 313.085236,53.975330 305.398682,72.225548 
M283.324738,69.122604 
	C289.859314,67.464317 292.882965,62.306496 290.223846,57.103584 
	C288.280579,53.301277 285.080231,51.520500 280.796509,52.419567 
	C276.679108,53.283741 273.863739,57.060444 274.053864,61.096214 
	C274.261475,65.503510 277.115814,68.225891 283.324738,69.122604 
z"/>
<path fill="#272827" opacity="1.000000" stroke="none" 
	d="
M417.365540,74.167862 
	C412.603638,78.445633 402.528992,79.382553 397.557373,76.357880 
	C394.025970,74.209427 392.808594,70.590698 394.205658,67.352226 
	C395.324005,64.759811 398.253723,62.100136 400.942322,61.249783 
	C404.262177,60.199768 408.171417,60.848717 411.813751,61.021435 
	C417.163971,61.275143 421.461700,68.200134 417.365540,74.167862 
z"/>
<path fill="#E7B07F" opacity="1.000000" stroke="none" 
	d="
M317.821747,390.746155 
	C315.127350,379.523041 320.466522,370.324524 330.521057,368.252960 
	C339.667603,366.368530 348.564758,372.419952 350.552856,381.877655 
	C352.253998,389.970093 347.263855,398.391479 339.154266,401.114014 
	C330.541565,404.005371 322.472687,400.204773 317.821747,390.746155 
z"/>
<path fill="#E7B07F" opacity="1.000000" stroke="none" 
	d="
M237.682129,338.415802 
	C231.692474,332.865906 229.949844,326.437592 232.628372,319.156311 
	C235.104568,312.424957 240.371338,308.713806 247.401993,308.278198 
	C254.437271,307.842346 259.979797,310.978912 263.444824,317.240814 
	C267.136261,323.911835 265.593872,332.602356 259.960205,337.794037 
	C253.959793,343.323700 245.763275,343.646606 237.682129,338.415802 
z"/>
<path fill="#E7B07F" opacity="1.000000" stroke="none" 
	d="
M245.651779,419.356506 
	C255.682205,418.848572 263.014160,423.784119 264.949646,431.987640 
	C266.888153,440.203949 262.853210,448.486847 255.304047,451.787903 
	C246.330414,455.711853 235.710846,451.142822 232.425491,441.944458 
	C228.914505,432.114380 234.289139,422.687958 245.651779,419.356506 
z"/>
<path fill="#E7B07F" opacity="1.000000" stroke="none" 
	d="
M169.429901,400.817505 
	C160.079803,403.491058 152.111679,400.475403 148.117798,393.026794 
	C144.230118,385.776215 145.953308,377.137878 152.343338,371.844330 
	C158.610382,366.652679 167.545471,366.661560 173.939331,371.865814 
	C183.727661,379.833069 181.676971,394.117340 169.429901,400.817505 
z"/>
<path fill="#E7B07F" opacity="1.000000" stroke="none" 
	d="
M116.788872,287.806824 
	C123.790298,282.063354 131.246078,281.178894 137.772263,285.085236 
	C143.729507,288.651031 147.009689,295.775055 145.831360,302.588318 
	C144.595169,309.736267 138.836807,315.295715 131.373871,316.546417 
	C124.965584,317.620361 117.870995,314.222321 114.386765,308.410278 
	C110.533875,301.983246 111.270538,294.983826 116.788872,287.806824 
z"/>
<path fill="#E7B07F" opacity="1.000000" stroke="none" 
	d="
M384.109436,304.815247 
	C379.710083,314.710358 371.104309,318.877594 362.219421,315.751801 
	C354.138733,312.908936 349.306274,304.004883 351.346924,295.718750 
	C353.618317,286.495697 362.746582,280.953308 372.080658,283.129791 
	C381.262848,285.270844 386.497223,294.461212 384.109436,304.815247 
z"/>
<path fill="#F9F9F9" opacity="1.000000" stroke="none" 
	d="
M282.919586,69.144119 
	C277.115814,68.225891 274.261475,65.503510 274.053864,61.096214 
	C273.863739,57.060444 276.679108,53.283741 280.796509,52.419567 
	C285.080231,51.520500 288.280579,53.301277 290.223846,57.103584 
	C292.882965,62.306496 289.859314,67.464317 282.919586,69.144119 
z"/>
</svg>